<?xml version="1.0" standalone="no"?>
<!DOCTYPE svg PUBLIC "-//W3C//DTD SVG 20010904//EN"
 "http://www.w3.org/TR/2001/REC-SVG-20010904/DTD/svg10.dtd">
<svg version="1.0" xmlns="http://www.w3.org/2000/svg"
 width="300.000000pt" height="294.000000pt" viewBox="0 0 300.000000 294.000000"
 preserveAspectRatio="xMidYMid meet">
<metadata>
Created by potrace 1.10, written by Peter Selinger 2001-2011
</metadata>
<g transform="translate(0.000000,294.000000) scale(0.100000,-0.100000)"
fill="#000000" stroke="none">
<path d="M1395 2255 c-16 -9 -47 -34 -67 -55 -21 -22 -43 -40 -50 -41 -149 -8
-186 -25 -254 -122 -29 -40 -111 -141 -183 -226 -72 -84 -131 -156 -131 -160
1 -6 125 123 208 216 26 29 52 55 59 57 10 4 13 -32 13 -169 l0 -174 -57 -7
c-49 -6 -64 -13 -95 -44 -35 -35 -42 -54 -39 -105 1 -11 -25 -50 -60 -90 -116
-133 -144 -172 -66 -91 43 44 77 83 77 88 0 4 9 8 20 8 19 0 20 -7 20 -187 0
-212 7 -239 70 -281 29 -19 45 -23 88 -20 49 4 55 2 73 -23 21 -29 71 -69 92
-73 47 -9 84 -20 94 -28 17 -13 65 -13 91 1 32 17 296 21 327 5 13 -7 37 -15
54 -19 17 -4 31 -10 31 -13 0 -4 -17 -25 -38 -47 -20 -22 -46 -52 -56 -65 -11
-14 23 19 73 72 51 54 101 98 111 98 9 0 38 18 63 40 45 40 47 40 102 34 30
-4 58 -11 61 -16 3 -4 -17 -37 -44 -71 -27 -35 -55 -74 -62 -87 -12 -25 -12
-25 7 -5 43 43 209 238 220 258 9 15 13 79 13 207 1 353 -1 402 -14 429 -7 14
-13 40 -14 58 -3 44 -15 73 -47 111 -30 36 -65 42 -86 15 -11 -15 -11 -16 1
-5 26 22 49 12 82 -35 25 -37 32 -57 31 -90 -1 -26 4 -46 13 -54 21 -18 21
-615 -1 -646 -31 -45 -154 -55 -212 -17 -21 13 -23 12 -39 -22 -20 -42 -78
-84 -116 -84 -16 0 -37 -9 -47 -19 -21 -21 -59 -18 -68 5 -8 22 -348 20 -357
-1 -7 -20 -65 -20 -72 0 -4 9 -19 15 -41 15 -19 0 -47 7 -62 15 -37 19 -81 71
-81 96 0 23 -8 24 -34 4 -11 -8 -40 -15 -64 -15 -37 0 -50 6 -78 34 l-34 34 0
256 c0 283 3 302 60 331 37 19 77 19 114 0 15 -8 29 -15 30 -15 0 0 1 110 1
244 l0 244 30 43 c45 63 83 82 172 84 l75 1 35 42 c84 102 179 98 257 -9 l28
-40 71 6 c98 8 149 -18 189 -94 27 -52 28 -58 29 -230 1 -100 4 -158 8 -135 4
23 6 106 4 185 -4 163 -18 209 -74 251 -44 33 -69 40 -151 43 -61 2 -71 5 -90
30 -11 15 -39 40 -61 56 -46 33 -103 38 -152 14z"/>
<path d="M1388 2172 l-40 -38 111 0 c61 1 111 4 111 7 0 8 -42 45 -67 58 -40
20 -72 13 -115 -27z m96 12 c9 -3 16 -13 16 -21 0 -10 -11 -13 -45 -12 -25 2
-45 4 -45 5 0 1 7 10 16 18 16 17 33 20 58 10z"/>
<path d="M1155 2086 c-50 -22 -83 -69 -90 -128 -3 -29 -5 -282 -3 -561 l3
-509 37 -34 38 -34 319 0 319 0 30 25 c16 13 35 37 41 52 8 21 11 179 9 575
l-3 546 -25 27 c-27 30 -78 55 -110 55 -19 0 -20 -6 -20 -85 0 -69 3 -85 15
-85 10 0 15 -11 15 -35 l0 -35 -42 6 c-31 5 -39 4 -33 -5 4 -7 16 -11 26 -8
18 5 19 -3 19 -154 0 -87 1 -162 3 -166 1 -5 -13 -9 -30 -11 l-33 -3 0 170 c0
94 -4 171 -9 171 -15 0 -19 61 -4 67 9 4 13 28 13 89 l0 84 -178 0 -178 0 0
-85 c1 -61 5 -85 14 -85 7 0 12 -14 12 -35 l0 -35 -42 6 c-31 5 -39 4 -33 -5
4 -7 16 -11 26 -8 18 5 19 -3 19 -141 0 -81 3 -157 6 -169 6 -21 3 -23 -30
-23 l-36 0 0 170 c0 107 -4 170 -10 170 -5 0 -10 16 -10 35 0 19 5 35 10 35 6
0 10 35 10 85 0 94 -4 98 -65 71z m443 -25 c17 -1 16 -102 -3 -137 -21 -40
-20 -124 1 -124 13 0 15 -19 12 -155 l-3 -155 33 0 c44 0 88 24 96 52 3 13 6
87 6 165 0 92 4 144 11 149 7 4 9 22 5 48 -22 141 -20 158 13 149 12 -3 30
-20 41 -38 19 -30 20 -49 20 -343 0 -286 -6 -352 -25 -292 -3 10 -20 31 -36
45 l-31 25 -273 0 -273 0 -31 -26 c-17 -14 -31 -34 -31 -43 0 -10 -12 -28 -27
-42 -14 -13 -22 -17 -18 -9 5 8 10 152 11 321 2 336 6 369 54 394 16 8 31 15
35 15 12 0 4 -117 -10 -144 -20 -38 -20 -116 0 -116 13 0 15 -24 15 -155 l0
-155 30 0 c46 0 87 25 94 57 3 16 5 85 5 155 0 79 4 141 12 163 10 28 10 42 1
68 -7 18 -12 54 -12 80 0 40 3 46 23 49 19 3 221 2 255 -1z m159 -663 c20 -19
23 -31 23 -105 0 -99 -8 -117 -55 -133 l-35 -12 0 -63 c0 -55 -3 -66 -21 -75
-35 -19 -49 3 -49 79 l0 66 -155 0 -155 0 0 -67 c0 -58 -3 -69 -21 -78 -34
-19 -49 3 -49 75 0 62 -1 64 -30 70 -48 10 -60 38 -60 134 0 73 3 88 22 108
21 23 22 23 292 23 263 0 270 -1 293 -22z m58 -488 c-24 -47 -51 -58 -148 -62
-67 -2 -86 0 -82 10 5 14 -11 16 -20 2 -4 -6 -84 -10 -206 -10 l-201 0 -29 29
-29 29 0 146 c0 135 9 178 25 126 3 -10 22 -29 41 -40 30 -19 34 -26 34 -64 0
-56 30 -96 71 -96 26 0 68 28 70 48 4 51 8 74 12 78 9 9 201 14 214 6 7 -5 17
-29 22 -55 5 -26 16 -56 26 -67 12 -13 15 -28 11 -47 l-7 -28 20 30 c11 17 34
41 51 53 27 20 30 28 30 77 0 53 1 55 33 69 22 9 40 27 53 52 l19 39 3 -147
c2 -118 -1 -154 -13 -178z"/>
<path d="M1197 1373 c-12 -12 -8 -158 5 -171 17 -17 38 -15 38 3 0 8 -4 15
-10 15 -5 0 -10 7 -10 15 0 8 5 15 10 15 6 0 10 28 10 65 0 56 -2 65 -18 65
-10 0 -22 -3 -25 -7z"/>
<path d="M1310 1320 c0 -33 4 -60 10 -60 6 0 10 -9 10 -20 0 -11 -4 -20 -10
-20 -5 0 -10 -6 -10 -12 0 -10 36 -13 153 -11 184 2 176 1 155 14 -19 11 -25
39 -8 39 6 0 10 28 10 65 l0 65 -155 0 -155 0 0 -60z m278 -8 c2 -19 -4 -44
-13 -58 -15 -23 -21 -24 -114 -24 -110 0 -111 0 -111 83 l0 38 118 -3 117 -3
3 -33z"/>
<path d="M1690 1320 c0 -33 4 -60 10 -60 6 0 10 -9 10 -20 0 -11 -4 -20 -10
-20 -5 0 -10 -7 -10 -15 0 -8 6 -15 13 -15 27 0 37 25 37 95 0 70 -10 95 -37
95 -9 0 -13 -17 -13 -60z"/>
<path d="M1980 1693 c0 -5 -16 -31 -35 -56 -19 -25 -35 -53 -35 -62 0 -14 3
-14 25 1 16 11 46 17 80 17 34 0 55 4 55 11 0 14 -90 103 -90 89z"/>
<path d="M1988 1553 c-15 -3 -39 -18 -53 -34 l-25 -31 0 -278 c0 -226 3 -280
14 -289 9 -7 42 -11 88 -9 72 3 73 3 79 33 4 17 7 152 8 301 1 246 -1 272 -16
286 -21 18 -58 26 -95 21z m72 -73 c0 -29 -2 -30 -45 -30 -43 0 -45 1 -45 30
0 29 2 30 45 30 43 0 45 -1 45 -30z m-10 -59 c0 -14 -28 -33 -40 -26 -5 3 -10
2 -10 -3 0 -19 14 -21 32 -5 17 15 18 15 18 -10 0 -25 -3 -27 -40 -27 -40 0
-40 0 -40 40 0 40 0 40 40 40 22 0 40 -4 40 -9z m10 -98 c0 -14 -48 -31 -59
-22 -6 5 -5 1 3 -8 12 -13 18 -14 30 -3 14 11 16 9 16 -14 0 -24 -3 -25 -42
-23 -40 3 -42 4 -41 35 1 18 2 34 2 37 2 8 91 6 91 -2z m-17 -108 c-12 -9 -29
-12 -40 -8 -16 6 -16 5 -4 -10 12 -16 16 -16 31 -2 23 21 28 19 22 -10 -4 -22
-9 -25 -46 -25 -42 0 -42 0 -42 35 l1 35 50 0 c47 0 48 -1 28 -15z m7 -86 c0
-15 -29 -29 -46 -22 -17 6 -17 5 -5 -10 13 -16 15 -16 32 -1 18 16 19 16 19
-9 0 -25 -3 -27 -45 -27 -44 0 -45 0 -45 33 0 19 2 36 4 38 7 7 86 5 86 -2z
m-10 -104 c-7 -8 -19 -15 -26 -15 -8 0 -14 -4 -14 -10 0 -15 11 -12 32 7 17
15 18 14 18 -16 0 -32 -1 -32 -42 -29 -36 3 -44 7 -46 26 -6 41 5 52 49 52 36
0 40 -2 29 -15z"/>
<path d="M881 1484 c-37 -47 -29 -54 59 -54 90 0 100 11 55 55 -34 35 -86 34
-114 -1z"/>
<path d="M860 1175 c0 -208 1 -215 22 -235 28 -26 78 -26 112 1 l26 20 0 215
0 214 -80 0 -80 0 0 -215z m122 135 c7 -37 1 -303 -8 -333 -4 -13 -14 -17 -37
-15 -27 3 -32 8 -38 37 -9 44 -5 324 5 340 4 7 22 11 39 9 27 -3 32 -8 39 -38z"/>
</g>
</svg>
